# Blender v2.74 (sub 0) OBJ File: ''
# www.blender.org
mtllib tunnel3.mtl
o Plane
v -0.990000 0.000000 0.990000
v 0.990000 0.000000 0.990000
v -0.990000 0.000000 -0.990000
v 0.990000 0.000000 -0.990000
v -1.000000 0.000000 -1.000000
v -1.000000 0.000000 1.000000
v 1.000000 0.000000 1.000000
v 1.000000 0.000000 -1.000000
v -0.990000 0.000000 0.990000
v 0.990000 0.000000 0.990000
v -0.495000 0.000000 0.495000
v 0.495000 0.000000 0.495000
vn 0.000000 1.000000 0.000000
vn 0.000000 0.000000 1.000000
usemtl None
s off
f 4//1 3//1 11//1 12//1
f 1//1 3//1 5//1 6//1
f 2//1 1//1 6//1 7//1
f 4//1 2//1 7//1 8//1
f 3//1 4//1 8//1 5//1
f 9//1 10//1 12//1 11//1
f 2//1 4//1 12//1 10//1
f 1//2 2//2 10//2 9//2
f 3//1 1//1 9//1 11//1
o Cylinder
v 0.000000 0.615570 -1.000000
v 0.000000 7.584424 -1.000000
v 0.098017 0.615570 -0.995185
v 0.098017 7.584424 -0.995185
v 0.195090 0.615570 -0.980785
v 0.195090 7.584424 -0.980785
v 0.290285 0.615570 -0.956940
v 0.290285 7.584424 -0.956940
v 0.382683 0.615570 -0.923880
v 0.382683 7.584424 -0.923880
v 0.471397 0.615570 -0.881921
v 0.471397 7.584424 -0.881921
v 0.555570 0.615570 -0.831470
v 0.555570 7.584424 -0.831470
v 0.634393 0.615570 -0.773010
v 0.634393 7.584424 -0.773010
v 0.707107 0.615570 -0.707107
v 0.707107 7.584424 -0.707107
v 0.773010 0.615570 -0.634393
v 0.773010 7.584424 -0.634393
v 0.831470 0.615570 -0.555570
v 0.831470 7.584424 -0.555570
v 0.881921 0.615570 -0.471397
v 0.881921 7.584424 -0.471397
v 0.923880 0.615570 -0.382683
v 0.923880 7.584424 -0.382683
v 0.956940 0.615570 -0.290285
v 0.956940 7.584424 -0.290285
v 0.980785 0.615570 -0.195090
v 0.980785 7.584424 -0.195090
v 0.995185 0.615570 -0.098017
v 0.995185 7.584424 -0.098017
v 1.000000 0.615570 0.000000
v 1.000000 7.584424 0.000000
v 0.995185 0.615570 0.098017
v 0.995185 7.584424 0.098017
v 0.980785 0.615570 0.195091
v 0.980785 7.584424 0.195091
v 0.956940 0.615570 0.290285
v 0.956940 7.584424 0.290285
v 0.923879 0.615570 0.382684
v 0.923879 7.584424 0.382684
v 0.881921 0.615570 0.471397
v 0.881921 7.584424 0.471397
v 0.831469 0.615570 0.555571
v 0.831469 7.584424 0.555571
v 0.773010 0.615570 0.634394
v 0.773010 7.584424 0.634394
v 0.707106 0.615570 0.707107
v 0.707106 7.584424 0.707107
v 0.634393 0.615570 0.773011
v 0.634393 7.584424 0.773011
v 0.555570 0.615570 0.831470
v 0.555570 7.584424 0.831470
v 0.471396 0.615570 0.881922
v 0.471396 7.584424 0.881922
v 0.382683 0.615570 0.923880
v 0.382683 7.584424 0.923880
v 0.290284 0.615570 0.956941
v 0.290284 7.584424 0.956941
v 0.195090 0.615570 0.980785
v 0.195090 7.584424 0.980785
v 0.098016 0.615570 0.995185
v 0.098016 7.584424 0.995185
v -0.000001 0.615570 1.000000
v -0.000001 7.584424 1.000000
v -0.098018 0.615570 0.995185
v -0.098018 7.584424 0.995185
v -0.195091 0.615570 0.980785
v -0.195091 7.584424 0.980785
v -0.290286 0.615570 0.956940
v -0.290286 7.584424 0.956940
v -0.382684 0.615570 0.923879
v -0.382684 7.584424 0.923879
v -0.471398 0.615570 0.881921
v -0.471398 7.584424 0.881921
v -0.555571 0.615570 0.831469
v -0.555571 7.584424 0.831469
v -0.634394 0.615570 0.773010
v -0.634394 7.584424 0.773010
v -0.707108 0.615570 0.707106
v -0.707108 7.584424 0.707106
v -0.773011 0.615570 0.634393
v -0.773011 7.584424 0.634393
v -0.831470 0.615570 0.555570
v -0.831470 7.584424 0.555570
v -0.881922 0.615570 0.471396
v -0.881922 7.584424 0.471396
v -0.923880 0.615570 0.382683
v -0.923880 7.584424 0.382683
v -0.956940 0.615570 0.290285
v -0.956940 7.584424 0.290285
v -0.980785 0.615570 0.195090
v -0.980785 7.584424 0.195090
v -0.995185 0.615570 0.098017
v -0.995185 7.584424 0.098017
v -1.000000 0.615570 0.000000
v -1.000000 7.584424 0.000000
v -0.995185 0.615570 -0.098016
v -0.995185 7.584424 -0.098016
v -0.980785 0.615570 -0.195089
v -0.980785 7.584424 -0.195089
v -0.956941 0.615570 -0.290284
v -0.956941 7.584424 -0.290284
v -0.923880 0.615570 -0.382682
v -0.923880 7.584424 -0.382682
v -0.881922 0.615570 -0.471395
v -0.881922 7.584424 -0.471395
v -0.831471 0.615570 -0.555569
v -0.831471 7.584424 -0.555569
v -0.773012 0.615570 -0.634392
v -0.773012 7.584424 -0.634392
v -0.707108 0.615570 -0.707105
v -0.707108 7.584424 -0.707105
v -0.634395 0.615570 -0.773009
v -0.634395 7.584424 -0.773009
v -0.555572 0.615570 -0.831468
v -0.555572 7.584424 -0.831468
v -0.471399 0.615570 -0.881920
v -0.471399 7.584424 -0.881920
v -0.382686 0.615570 -0.923878
v -0.382686 7.584424 -0.923878
v -0.290288 0.615570 -0.956939
v -0.290288 7.584424 -0.956939
v -0.195093 0.615570 -0.980785
v -0.195093 7.584424 -0.980785
v -0.098021 0.615570 -0.995184
v -0.098021 7.584424 -0.995184
vn 0.000000 0.000000 -1.000000
vn 0.098000 0.000000 -0.995200
vn 0.195100 0.000000 -0.980800
vn 0.290300 0.000000 -0.956900
vn 0.382700 0.000000 -0.923900
vn 0.471400 0.000000 -0.881900
vn 0.555600 0.000000 -0.831400
vn 0.634400 0.000000 -0.773000
vn 0.707100 0.000000 -0.707100
vn 0.773000 0.000000 -0.634400
vn 0.831400 0.000000 -0.555600
vn 0.881900 0.000000 -0.471400
vn 0.923900 0.000000 -0.382700
vn 0.956900 0.000000 -0.290300
vn 0.980800 0.000000 -0.195100
vn 0.995200 0.000000 -0.098000
vn 1.000000 0.000000 0.000000
vn 0.995200 0.000000 0.098000
vn 0.980800 0.000000 0.195100
vn 0.956900 0.000000 0.290300
vn 0.923900 0.000000 0.382700
vn 0.881900 0.000000 0.471400
vn 0.831400 0.000000 0.555600
vn 0.773000 0.000000 0.634400
vn 0.707100 0.000000 0.707100
vn 0.634400 0.000000 0.773000
vn 0.555600 0.000000 0.831400
vn 0.471400 0.000000 0.881900
vn 0.382700 0.000000 0.923900
vn 0.290300 0.000000 0.956900
vn 0.195100 0.000000 0.980800
vn 0.098000 0.000000 0.995200
vn 0.000000 0.000000 1.000000
vn -0.098000 0.000000 0.995200
vn -0.195100 0.000000 0.980800
vn -0.290300 0.000000 0.956900
vn -0.382700 0.000000 0.923900
vn -0.471400 0.000000 0.881900
vn -0.555600 0.000000 0.831400
vn -0.634400 0.000000 0.773000
vn -0.707100 0.000000 0.707100
vn -0.773000 0.000000 0.634400
vn -0.831400 0.000000 0.555600
vn -0.881900 0.000000 0.471400
vn -0.923900 0.000000 0.382700
vn -0.956900 0.000000 0.290300
vn -0.980800 0.000000 0.195100
vn -0.995200 0.000000 0.098000
vn -1.000000 0.000000 0.000000
vn -0.995200 0.000000 -0.098000
vn -0.980800 0.000000 -0.195100
vn -0.956900 0.000000 -0.290300
vn -0.923900 0.000000 -0.382700
vn -0.881900 0.000000 -0.471400
vn -0.831400 0.000000 -0.555600
vn -0.773000 0.000000 -0.634400
vn -0.707100 0.000000 -0.707100
vn -0.634400 0.000000 -0.773000
vn -0.555600 0.000000 -0.831400
vn -0.471400 0.000000 -0.881900
vn -0.382700 0.000000 -0.923900
vn -0.290300 0.000000 -0.956900
vn -0.195100 0.000000 -0.980800
vn -0.098000 0.000000 -0.995200
usemtl None
s 1
f 13//3 14//3 16//4 15//4
f 15//4 16//4 18//5 17//5
f 17//5 18//5 20//6 19//6
f 19//6 20//6 22//7 21//7
f 21//7 22//7 24//8 23//8
f 23//8 24//8 26//9 25//9
f 25//9 26//9 28//10 27//10
f 27//10 28//10 30//11 29//11
f 29//11 30//11 32//12 31//12
f 31//12 32//12 34//13 33//13
f 33//13 34//13 36//14 35//14
f 35//14 36//14 38//15 37//15
f 37//15 38//15 40//16 39//16
f 39//16 40//16 42//17 41//17
f 41//17 42//17 44//18 43//18
f 43//18 44//18 46//19 45//19
f 45//19 46//19 48//20 47//20
f 47//20 48//20 50//21 49//21
f 49//21 50//21 52//22 51//22
f 51//22 52//22 54//23 53//23
f 53//23 54//23 56//24 55//24
f 55//24 56//24 58//25 57//25
f 57//25 58//25 60//26 59//26
f 59//26 60//26 62//27 61//27
f 61//27 62//27 64//28 63//28
f 63//28 64//28 66//29 65//29
f 65//29 66//29 68//30 67//30
f 67//30 68//30 70//31 69//31
f 69//31 70//31 72//32 71//32
f 71//32 72//32 74//33 73//33
f 73//33 74//33 76//34 75//34
f 75//34 76//34 78//35 77//35
f 77//35 78//35 80//36 79//36
f 79//36 80//36 82//37 81//37
f 81//37 82//37 84//38 83//38
f 83//38 84//38 86//39 85//39
f 85//39 86//39 88//40 87//40
f 87//40 88//40 90//41 89//41
f 89//41 90//41 92//42 91//42
f 91//42 92//42 94//43 93//43
f 93//43 94//43 96//44 95//44
f 95//44 96//44 98//45 97//45
f 97//45 98//45 100//46 99//46
f 99//46 100//46 102//47 101//47
f 101//47 102//47 104//48 103//48
f 103//48 104//48 106//49 105//49
f 105//49 106//49 108//50 107//50
f 107//50 108//50 110//51 109//51
f 109//51 110//51 112//52 111//52
f 111//52 112//52 114//53 113//53
f 113//53 114//53 116//54 115//54
f 115//54 116//54 118//55 117//55
f 117//55 118//55 120//56 119//56
f 119//56 120//56 122//57 121//57
f 121//57 122//57 124//58 123//58
f 123//58 124//58 126//59 125//59
f 125//59 126//59 128//60 127//60
f 127//60 128//60 130//61 129//61
f 129//61 130//61 132//62 131//62
f 131//62 132//62 134//63 133//63
f 133//63 134//63 136//64 135//64
f 135//64 136//64 138//65 137//65
f 137//65 138//65 140//66 139//66
f 139//66 140//66 14//3 13//3
